# xmcd
#
# Track frame offsets:
#	150
#	15912
#	30074
#	45209
#	61135
#	74462
#	88477
#	105733
#	118790
#	128744
#
# Disc length: 1897 seconds
#
# Revision: 0
# Processed by: cddbd v1.5.2PL0 Copyright (c) Steve Scherf et al.
# Submitted via: audiograbber 1.83.01
#
DISCID=7507670a
DTITLE=Rob Oxford - So Far...2007
DYEAR=2007
DGENRE=Country
TTITLE0=Can Do
TTITLE1=The Travelin' Blues
TTITLE2=Once Upon a Time
TTITLE3=Take a Little Love
TTITLE4=One-Eyed Baby Sitter
TTITLE5=Over the Hills to Woodstock
TTITLE6=Two Leaves Caught in the Wind
TTITLE7=The Sky's on Fire
TTITLE8=It's All About Me
TTITLE9=If That Works for You
EXTD=
EXTT0=
EXTT1=
EXTT2=
EXTT3=
EXTT4=
EXTT5=
EXTT6=
EXTT7=
EXTT8=
EXTT9=
PLAYORDER=
